<svg id="f24389fe-bc15-4e2f-af24-73e81ebbc812" data-name="Layer 1" xmlns="http://www.w3.org/2000/svg" width="865.76" height="682.89" viewBox="0 0 865.76 682.89"><g id="b7a69bfc-fdf0-4e80-b6b3-810e2021d22b" data-name="freepik--background-complete--inject-47"><rect x="339.72" y="9.41" width="213.4" height="327.21" fill="#dbdbdb"/><rect x="351.35" y="22.52" width="90.11" height="145.54" fill="#fff"/><rect x="451.38" y="22.52" width="90.11" height="145.54" fill="#fff"/><rect x="351.35" y="177.98" width="90.11" height="145.54" fill="#fff"/><rect x="451.38" y="177.98" width="90.11" height="145.54" fill="#fff"/><rect x="339.72" y="9.41" width="50.55" height="468.13" fill="#ebebeb"/><polygon points="380.68 31.66 381.08 82.28 381.21 132.9 381.48 234.13 381.23 335.36 381.08 385.97 380.68 436.59 380.29 385.97 380.15 335.36 379.88 234.13 380.15 132.9 380.29 82.28 380.68 31.66" fill="#fff"/><polygon points="357.48 43.41 357.87 88.6 358.09 133.79 358.28 224.18 358.09 314.58 357.87 359.77 357.48 404.97 357.08 359.77 356.86 314.58 356.68 224.18 356.86 133.79 357.08 88.6 357.48 43.41" fill="#fff"/><polygon points="369.08 54.08 369.46 107 369.61 159.91 369.88 265.76 369.61 371.6 369.46 424.52 369.08 477.43 368.69 424.52 368.55 371.6 368.28 265.76 368.55 159.91 368.69 107 369.08 54.08" fill="#fff"/><polygon points="348.85 34.34 349.24 89.72 349.38 145.1 349.65 255.88 349.38 366.66 349.24 422.05 348.85 477.43 348.45 422.05 348.31 366.66 348.05 255.88 348.31 145.1 348.45 89.72 348.85 34.34" fill="#fff"/><rect x="502.57" y="9.41" width="50.55" height="468.13" fill="#ebebeb"/><polygon points="512.15 31.66 512.55 82.28 512.7 132.9 512.95 234.13 512.7 335.36 512.55 385.97 512.15 436.59 511.76 385.97 511.62 335.36 511.36 234.13 511.62 132.9 511.76 82.28 512.15 31.66" fill="#fff"/><polygon points="535.37 43.41 535.77 88.6 535.99 133.79 536.17 224.18 535.99 314.58 535.77 359.77 535.37 404.97 534.98 359.77 534.75 314.58 534.56 224.18 534.75 133.79 534.98 88.6 535.37 43.41" fill="#fff"/><polygon points="523.77 54.08 524.15 107 524.29 159.91 524.57 265.76 524.29 371.6 524.15 424.52 523.77 477.43 523.36 424.52 523.24 371.6 522.96 265.76 523.24 159.91 523.38 107 523.77 54.08" fill="#fff"/><polygon points="544 34.34 544.4 89.72 544.52 145.1 544.8 255.88 544.52 366.66 544.4 422.05 544 477.43 543.61 422.05 543.47 366.66 543.19 255.88 543.47 145.1 543.61 89.72 544 34.34" fill="#fff"/><rect x="744.5" y="476.93" width="42.48" height="17.95" fill="#ebebeb"/><rect x="768.21" y="499.57" width="42.48" height="17.95" fill="#ebebeb"/><rect x="287.9" y="343.99" width="42.48" height="17.95" fill="#ebebeb"/><rect x="311.58" y="366.62" width="42.48" height="17.95" fill="#ebebeb"/><rect x="607.73" y="191.36" width="42.48" height="17.95" fill="#ebebeb"/><rect x="631.45" y="213.99" width="42.48" height="17.95" fill="#ebebeb"/><rect x="655.06" y="191.36" width="42.48" height="17.95" fill="#ebebeb"/><rect x="157.23" y="499.57" width="42.48" height="17.95" fill="#ebebeb"/><rect x="180.95" y="27.04" width="42.48" height="17.95" fill="#ebebeb"/><rect x="157.23" y="49.68" width="42.48" height="17.95" fill="#ebebeb"/><rect x="744.5" y="27.04" width="42.48" height="17.95" fill="#ebebeb"/><polygon points="716.99 462.25 768.72 462.25 798.34 314.61 750.96 292.84 716.99 462.25" fill="#dbdbdb"/><polygon points="568.88 462.25 716.99 462.25 750.96 292.84 602.86 292.84 568.88 462.25" fill="#ebebeb"/><rect x="743.55" y="383.04" width="79.3" height="162.72" fill="#dbdbdb"/><polygon points="530.82 545.76 552.48 545.76 584.76 383.05 530.82 383.05 530.82 545.76" fill="#dbdbdb"/><rect x="699.96" y="383.04" width="43.57" height="162.72" fill="#ebebeb"/><rect x="487.25" y="383.04" width="43.57" height="162.72" fill="#ebebeb"/><rect x="530.81" y="462.27" width="169.16" height="83.5" fill="#ebebeb"/><rect x="530.81" y="426.17" width="169.16" height="36.43" fill="#ebebeb"/><path d="M732.87,383.05l-16.45-.32L700,382.52h-.5V383l-.19,19v19c0,12.69-.1,25.38,0,38.07s0,25.4.21,38.09.29,25.39.56,38.08q.39-19,.55-38.08c.16-12.69.17-25.38.22-38.09s0-25.38,0-38.07l-.08-19-.21-19-.5.5,16.45-.21Z" fill="#dbdbdb"/><path d="M530.82,383.05c-.35,12.74-.49,25.48-.64,38.22L530,459.5l.19,38.23.23,19.1.41,19.13.41-19.13.22-19.1.19-38.23-.19-38.27C531.32,408.53,531.16,395.79,530.82,383.05Z" fill="#dbdbdb"/><path d="M530.82,462.26c14.09.35,28.19.49,42.29.64l42.29.19,42.29-.19,21.15-.23,21.14-.42-21.14-.4-21.15-.22-42.29-.19-42.29.19C559,461.76,544.93,461.92,530.82,462.26Z" fill="#dbdbdb"/><path d="M530.82,426.16c14.09.34,28.19.5,42.29.64l42.29.18,42.29-.18,21.15-.24,21.14-.4-21.14-.4-21.15-.23-42.29-.19-42.29.19C559,425.66,544.93,425.82,530.82,426.16Z" fill="#dbdbdb"/><polygon points="792.71 545.76 793.78 558.95 796.28 589.39 807.77 589.39 810.27 558.95 811.35 545.76 792.71 545.76" fill="#c7c7c7"/><polygon points="811.35 545.76 792.71 545.76 793.78 558.95 810.27 558.95 811.35 545.76" fill="#a6a6a6"/><polygon points="712.45 545.76 713.52 558.95 716.02 589.39 727.51 589.39 730.01 558.95 731.09 545.76 712.45 545.76" fill="#c7c7c7"/><polygon points="731.09 545.76 712.45 545.76 713.52 558.95 730.01 558.95 731.09 545.76" fill="#a6a6a6"/><polygon points="579.31 545.76 580.38 558.95 582.88 589.39 594.35 589.39 596.87 558.95 597.93 545.76 579.31 545.76" fill="#c7c7c7"/><polygon points="597.93 545.76 579.31 545.76 580.38 558.95 596.87 558.95 597.93 545.76" fill="#a6a6a6"/><polygon points="499.01 545.76 500.09 558.95 502.59 589.39 514.08 589.39 516.58 558.95 517.65 545.76 499.01 545.76" fill="#c7c7c7"/><polygon points="499.01 545.76 500.09 558.95 516.58 558.95 517.65 545.76 499.01 545.76" fill="#a6a6a6"/><rect x="173.84" y="24.2" width="78.79" height="78.79" fill="#fff"/><path d="M169.73,20.16v87h87v-87ZM252.63,103H173.84V24.2h78.79Z" fill="#dbdbdb"/><rect x="185.53" y="60.51" width="61.41" height="27.24" fill="#ebebeb"/><rect x="197.5" y="47.87" width="31.46" height="31.46" fill="#c7c7c7"/><rect x="256.72" y="20.11" width="3.35" height="86.98" fill="#c7c7c7"/><rect x="173.84" y="136.07" width="78.79" height="78.79" fill="#fff"/><rect x="187.38" y="148.68" width="20.57" height="59.42" fill="#c7c7c7"/><path d="M169.73,132v87h87V132Zm82.9,82.88H173.84V136.07h78.79Z" fill="#dbdbdb"/><rect x="197.5" y="159.73" width="31.46" height="31.46" fill="#ebebeb"/><rect x="256.72" y="131.98" width="3.35" height="86.98" fill="#c7c7c7"/><rect x="173.84" y="247.95" width="78.79" height="78.79" fill="#fff"/><rect x="182.57" y="258.69" width="43.24" height="25.85" fill="#ebebeb"/><path d="M169.73,243.85v87h87v-87Zm82.9,82.89H173.84V248h78.79Z" fill="#dbdbdb"/><rect x="197.5" y="271.62" width="31.46" height="31.46" fill="#c7c7c7"/><rect x="256.72" y="243.85" width="3.35" height="86.98" fill="#c7c7c7"/></g><polygon points="124.39 374.04 354.25 372.26 354.25 595.92 124.39 595.92 124.39 374.04" fill="#feba55"/><polygon points="124.39 374.04 354.25 372.26 354.25 595.92 124.39 595.92 124.39 374.04" opacity="0.2"/><path d="M168.15,185.86c-14.22-8.16-21.61-22.52-21.61-22.52l1-18.34,7.93-6.8,11.17,16.34.42,8.84Z" fill="#ff8f6a"/><ellipse cx="174.09" cy="130.78" rx="19.52" ry="28.65" fill="#ff8f6a"/><path d="M163.9,108.39a.27.27,0,0,1,.51.15c-1.06,4.75-1.82,12.77,5.22,12.47,0,0,33.11,5.52,29.92-12.09,0,0,.79-28.72-39.12-26.5a26.68,26.68,0,0,0-8.49,1.88h0s-2.81-3.18-5.4-3c0,0-5.14-13.49-17.78-10.91a18,18,0,0,0-12.69,10.2,31.16,31.16,0,0,0-2.39,14.48c.14,2.85-1.78,5.42-4.19,6.94-4.58,2.88-12.31,7.79-18.58,12,0,0-24,10.61-12.52,34l.24.6a20.4,20.4,0,0,1-3.95,21.15c-6.43,7-17.13,23.57-2.45,45.52,0,0,4.52,8.44,22.29,6.58,0,0,9.39,17.44,21,16.77l31-75.24L147.4,148s3-1.3,3.56-3.81c0,0-.2,13.49,6.9,17.89C157.86,162,147.2,147,163.9,108.39Z" fill="#5e1212"/><path d="M142.46,75s-19.93,12.28-16.33,32.87c0,0,8.51,42-3.49,61,0,0-8.6,8.61-9.88,20.92,0,0,0,35.22-16.34,23.76,0,0-23.88,1.22-31.56-20.82,0,0-.29,34,29.66,29.1,0,0,9,17.53,21,16.77l31-75.24L147.4,148s-11.2-5.5-13.27-18c0,0-5.84-17.26-1.82-24.62,0,0-4.43-3.61,0-12.73,0,0,5.79-10.19,14.23-11.25A14.93,14.93,0,0,0,142.46,75Z" opacity="0.2"/><path d="M128.59,170.69s-11.69,4.37-14.45,26.43l-3,36.66a3.57,3.57,0,0,0,2.66,3.76c4.67,1.21,14,2.56,20.31-3.43V183.73S123.82,171.88,128.59,170.69Z" fill="#f73c4f"/><path d="M128.59,170.69s-11.69,4.37-14.45,26.43l-3,36.66a3.57,3.57,0,0,0,2.66,3.76c4.67,1.21,14,2.56,20.31-3.43V183.73S123.82,171.88,128.59,170.69Z" opacity="0.2"/><path d="M188.37,168.85s12.58,1.47,13.92,23.86l3.12,30.44a3.94,3.94,0,0,1-2.53,4.09c-2.18.83-6,1.68-12.77,1.87Z" fill="#f73c4f"/><path d="M188.37,168.85s12.58,1.47,13.92,23.86l3.12,30.44a3.94,3.94,0,0,1-2.53,4.09c-2.18.83-6,1.68-12.77,1.87Z" opacity="0.2"/><rect x="333.08" y="595.92" width="12.45" height="24.01" fill="#feba55"/><path d="M382.35,580.14a51.62,51.62,0,0,1,8.87,12.48,10.72,10.72,0,0,1-2.5,12.43c-9.56,8.8-33.06,28.19-60.28,34.19,0,0-11.67-19.87,10.56-27.28Z" fill="#366e91"/><path d="M382.35,580.14a51.62,51.62,0,0,1,8.87,12.48,10.72,10.72,0,0,1-2.5,12.43c-9.56,8.8-33.06,28.19-60.28,34.19,0,0-11.67-19.87,10.56-27.28Z" opacity="0.2"/><polygon points="124.39 374.04 85.1 338.51 324.42 338.51 360.67 372.22 124.39 374.04" fill="#feba55"/><polygon points="124.39 374.04 85.1 338.51 324.42 338.51 360.67 372.22 124.39 374.04" fill="#fff" opacity="0.5"/><polygon points="85.1 338.51 85.1 348.55 123.66 382.53 360.67 382.53 360.67 372.22 124.39 374.04 85.1 338.51" fill="#feba55"/><polygon points="124.39 374.04 123.66 382.53 85.1 348.55 85.1 338.51 124.39 374.04" opacity="0.2"/><polygon points="124.39 374.04 124.39 595.92 91.93 569.32 91.93 344.68 124.39 374.04" fill="#feba55"/><rect x="136.45" y="595.92" width="13.3" height="36.53" fill="#feba55"/><polygon points="128.19 627.43 136.45 632.46 136.45 595.92 128.19 595.92 128.19 627.43" fill="#feba55"/><polygon points="128.19 627.43 136.45 632.46 136.45 595.92 128.19 595.92 128.19 627.43" opacity="0.3"/><polygon points="101.26 576.97 101.26 605.8 115.62 605.8 115.62 588.74 101.26 576.97" fill="#feba55"/><polygon points="101.26 576.97 101.26 605.8 115.62 605.8 115.62 588.74 101.26 576.97" opacity="0.3"/><polygon points="101.26 605.8 93.99 599.26 93.99 571.01 101.26 576.97 101.26 605.8" fill="#feba55"/><polygon points="101.26 605.8 93.99 599.26 93.99 571.01 101.26 576.97 101.26 605.8" opacity="0.2"/><path d="M189.46,230.1a15,15,0,0,0-2.71,8.5v24.24c-21.13,15.17-51.69-1.15-51.69-1.15,1.37-6.66-1.61-20.91-1.61-20.91-6.9-26,0-57.91,0-57.91,15.85,20.45,34.69,3,34.69,3,17.47,17.46,20.23-17,20.23-17,3.9,5.74,8,29.86,8,29.86C198,214.84,192.83,225.2,189.46,230.1Z" fill="#f73c4f"/><path d="M168.15,185.86c-21.61,17.39-34.7-3-34.7-3a28.76,28.76,0,0,1-6-9.41c-2.74-5.5,19.07-10.11,19.07-10.11S153.93,177.7,168.15,185.86Z" fill="#f73c4f"/><path d="M168.15,185.86c-21.61,17.39-34.7-3-34.7-3a28.76,28.76,0,0,1-6-9.41c-2.74-5.5,19.07-10.11,19.07-10.11S153.93,177.7,168.15,185.86Z" fill="#fff" opacity="0.5"/><path d="M188.37,168.85c-4.37,35.62-20.22,17-20.22,17l-1.07-22.48C185.88,165.25,188.37,168.85,188.37,168.85Z" fill="#f73c4f"/><path d="M188.37,168.85c-4.37,35.62-20.22,17-20.22,17l-1.07-22.48C185.88,165.25,188.37,168.85,188.37,168.85Z" fill="#fff" opacity="0.5"/><path d="M132.31,105.31s-4.43-3.82,0-12.73c0,0,7.27-11.46,14.23-11.25a6.49,6.49,0,0,1,5.4,3S141.68,85.58,132.31,105.31Z" fill="#f73c4f"/><path d="M204.4,226.2s4,22,4,32.65L190.46,234l-.35-4.91S201.67,229,204.4,226.2Z" fill="#f75c2d"/><path d="M316,450.08h-167l0-.41c-.24-3.18-1.24-5.43-3-6.68a7,7,0,0,0-5.23-1l-.55.13V400.51l.42,0c8.87-.39,9.54-6.73,9.55-6.79l0-.4H332.77l.05.38c1,6.68,4.4,9.39,4.43,9.42l.16.12v.21l1.12,27.29-.16.14Zm-166.23-.88H315.63l22-18.87-1.09-26.67c-.72-.63-3.57-3.45-4.54-9.48H150.91c-.32,1.49-2,6.64-9.9,7.17v39.7a7.56,7.56,0,0,1,5.41,1.22C148.3,443.62,149.41,446,149.72,449.2Z" fill="#fff"/><path d="M316,516.05h-167l0-.41c-.23-3.18-1.23-5.43-3-6.69a7,7,0,0,0-5.24-1l-.54.13V466.48l.42,0c8.84-.39,9.52-6.53,9.55-6.79l0-.4H332.76l.06.37c1,6.69,4.39,9.4,4.43,9.43l.16.12v.21l1.11,27.29-.16.14Zm-166.23-.88h165.9l22-18.87-1.09-26.67c-.73-.63-3.58-3.45-4.55-9.48H150.9c-.31,1.49-2,6.64-9.89,7.17V507a7.53,7.53,0,0,1,5.4,1.22C148.29,509.59,149.4,511.92,149.72,515.17Z" fill="#fff"/><path d="M331.71,584.16H148.9l0-.41c-.23-3.19-1.24-5.44-3-6.69a6.92,6.92,0,0,0-5.23-1l-.54.13V534.59l.42,0c8.87-.4,9.54-6.73,9.55-6.79l0-.4H332.75l.06.37c1,6.68,4.39,9.4,4.43,9.42l.16.13v.19c.39,5.83,1,11.76,1.67,17.5s1.28,11.68,1.67,17.53l0,.35-.34.1a11.92,11.92,0,0,0-8.69,10.77Zm-182-.88H330.89a12.83,12.83,0,0,1,8.95-11c-.39-5.72-1-11.53-1.64-17.15s-1.26-11.55-1.66-17.34c-.71-.62-3.57-3.44-4.55-9.48H150.89c-.31,1.49-2,6.64-9.89,7.17v39.7a7.57,7.57,0,0,1,5.4,1.21C148.28,577.7,149.39,580,149.71,583.28Z" fill="#fff"/><rect x="215.25" y="537.82" width="48.44" height="10.99" rx="4.68" opacity="0.2"/><rect x="215.25" y="470.3" width="48.44" height="10.99" rx="4.68" opacity="0.2"/><path d="M188.37,270.94c-25.37,11.68-53.31,0-53.31,0-2.2-3.09,0-9.25,0-9.25s30.56,16.32,51.69,1.15C191.75,266.2,188.37,270.94,188.37,270.94Z" fill="#f73c4f"/><path d="M188.37,270.94c-25.37,11.68-53.31,0-53.31,0-2.2-3.09,0-9.25,0-9.25s30.56,16.32,51.69,1.15C191.75,266.2,188.37,270.94,188.37,270.94Z" fill="#fff" opacity="0.5"/><path d="M270,378.65l-4.88,73.55a3.49,3.49,0,0,1-2.07,3c-17.82,7.66-33.49,5.63-45.4,1h0a71,71,0,0,1-22.32-14.06,3.48,3.48,0,0,1-.92-3.65c4.51-13.42,11.87-39.7,11.87-39.7,1.25-11.3-34.85-19.47-34.85-19.47-19.63-7.23-30.84-12.39-37.16-15.76a27.46,27.46,0,0,1-11.91-12.39c-7.67-16.12-7.1-32.26-3.7-45.78a101.25,101.25,0,0,1,16.4-34.4c33.95,11.58,53.31,0,53.31,0,1.06,5.26,1.47,13.63,1.63,18.85a8,8,0,0,0,4.32,6.83c30.1,15.75,62.19,48.06,62.19,48.06C272.83,361.89,270,378.65,270,378.65Z" fill="#366e91"/><path d="M190.11,314.92a110.46,110.46,0,0,1,16.72,8.34,128.28,128.28,0,0,1,15.25,10.87l3.53,3.09,3.36,3.27c1.15,1.06,2.16,2.26,3.22,3.41s2.14,2.28,3.06,3.55a78.61,78.61,0,0,1,9.95,15.81l-2.41-4c-.41-.66-.78-1.34-1.21-2l-1.36-1.89c-.91-1.26-1.75-2.56-2.71-3.78l-3-3.58a108.24,108.24,0,0,0-13.22-13,142.52,142.52,0,0,0-15-11c-2.62-1.68-5.27-3.29-8-4.79S192.92,316.27,190.11,314.92Z" opacity="0.2"/><path d="M201.93,413.91s26.15,30.08,65.32,6.2L266.12,437S229,454.09,198.51,425.47Z" opacity="0.2"/><path d="M217.65,456.15a71,71,0,0,1-22.32-14.06,3.48,3.48,0,0,1-.92-3.65c4.51-13.42,11.87-39.7,11.87-39.7,1.25-11.3-34.85-19.47-34.85-19.47-19.63-7.23-30.84-12.39-37.16-15.76a27.46,27.46,0,0,1-11.91-12.39c-7.67-16.12-7.1-32.26-3.7-45.78h0s-2.81,39.86,25.44,50.93l51.48,22.06s23.12,4.32,17.9,29.51C213.5,407.84,207.69,444.49,217.65,456.15Z" opacity="0.2"/><path d="M231.13,459.7l-29.39,50.37c-7.51,10-8.51,36.6-8.51,36.6-9.14-2.46-11.81-14.21-12.52-19.12a8.82,8.82,0,0,1,.22-3.65c1.91-7,1.09-17.28,1.09-17.28,10.33-9,26.51-54.84,26.51-54.84C218.45,458.6,231.13,459.7,231.13,459.7Z" fill="#ff8f6a"/><path d="M188.28,562.31c-7.5,4.69-15-15.64-15-15.64-6-10-2.2-14.08-2.2-14.08A22.82,22.82,0,0,0,173,520.7l-10.63,7.11-2.2-5.55,8.14-9.07c5-6.57,13.76-6.57,13.76-6.57s.82,10.3-1.09,17.28a8.82,8.82,0,0,0-.22,3.65c.71,4.91,3.38,16.66,12.52,19.12C195.05,560.74,188.28,562.31,188.28,562.31Z" fill="#f73c4f"/><path d="M252.16,523.15c0,19.46,5.54,31.1,5.54,31.1-5.35,2.22-12.75-6.27-16.3-10.94a12.07,12.07,0,0,1-2.36-5.44,48.11,48.11,0,0,0-4.73-14c3.78-15.09,2-64.11,2-64.11,12.57,2,24.29-3.57,24.29-3.57.38,7.15-7.1,57-8.3,64.86A15.56,15.56,0,0,0,252.16,523.15Z" fill="#ff8f6a"/><path d="M263.11,565.75c-2.35,8.44-10.45,5.85-10.45,5.85l-18.35-13.83c-4.53-2.27-1.43-13.33-1.43-13.33.32-4.37-4.1-4.27-4.1-4.27L222,547.71l-4.34-4.4,7.61-13.2c2.51-7.71,9.05-6.29,9.05-6.29a48.11,48.11,0,0,1,4.73,14,12.07,12.07,0,0,0,2.36,5.44c3.55,4.67,10.95,13.16,16.3,10.94l4.13,5.36A7,7,0,0,1,263.11,565.75Z" fill="#f73c4f"/><path d="M349.64,393.74s-57.49,24.35-57.49,53.79c0,0,.34,17.36,13.08,40.83l41.24,93.21,32.86-20.11s-30.52-90.53-35.54-100.93l40.23-19Z" fill="#f73c4f"/><path d="M349.64,393.74s-57.49,24.35-57.49,53.79c0,0,.34,17.36,13.08,40.83l41.24,93.21,32.86-20.11s-30.52-90.53-35.54-100.93l40.23-19Z" opacity="0.2"/><ellipse cx="455.59" cy="639.97" rx="45.37" ry="9.19" fill="#366e91"/><ellipse cx="455.59" cy="639.97" rx="45.37" ry="9.19" opacity="0.2"/><rect x="452.3" y="456.59" width="7.09" height="179.22" fill="#366e91"/><path d="M514.08,414.69v32.84s-.85,9.05-61.78,11.82l21.8-44.66Z" fill="#366e91"/><path d="M514.08,414.69v32.84s-.85,9.05-61.78,11.82l21.8-44.66Z" opacity="0.2"/><ellipse cx="478.25" cy="414.69" rx="35.84" ry="6.98" fill="#366e91"/><path d="M461.81,451.82,407.26,495a13.11,13.11,0,0,0-4.57,7L370.28,626.51s-19.12,5.7-32.19-9.73l1.47-7.78,18-95.49s3.36-30.17,11.74-44.6L384,441.57l109.13-63.28,7.34-4.26S508.07,419,461.81,451.82Z" fill="#f73c4f"/><path d="M461.81,451.82,407.26,495a13.11,13.11,0,0,0-4.57,7L370.28,626.51s-19.12,5.7-32.19-9.73l1.47-7.78s22.5,10.12,29-3l31.69-121.7s65-39,58.15-68.05c0,0-4.35-12.61,22.31-21.07l12.4-16.94,7.34-4.26S508.07,419,461.81,451.82Z" opacity="0.2"/><rect x="606.09" y="243.01" width="0.88" height="8.9" transform="translate(-42.5 336.2) rotate(-29.98)" fill="#feba55"/><rect x="616.2" y="235.73" width="0.88" height="8.37" transform="translate(-40.16 320.01) rotate(-28.21)" fill="#feba55"/><rect x="596.13" y="251.62" width="0.88" height="7.97" transform="translate(-47.89 332.41) rotate(-29.99)" fill="#feba55"/><path d="M498.63,300.61v33.72l-100.83-2.8c-4.09-14.18-6.74-30.11-8.45-45.15a511.36,511.36,0,0,1-3.16-55.23,8.4,8.4,0,0,1,2.58-6.09c6.36-6.07,20.62-12.37,20.62-12.37l31.3-8.65c18.74-.62,31.44,3.91,31.44,3.91C484.57,210.83,498.63,300.61,498.63,300.61Z" fill="#366e91"/><path d="M498.63,300.61v33.72l-100.83-2.8c-4.09-14.18-6.74-30.11-8.45-45.15a511.36,511.36,0,0,1-3.16-55.23,8.4,8.4,0,0,1,2.58-6.09c6.36-6.07,20.62-12.37,20.62-12.37l31.3-8.65c18.74-.62,31.44,3.91,31.44,3.91C484.57,210.83,498.63,300.61,498.63,300.61Z" fill="#fff" opacity="0.5"/><polygon points="413.79 197.24 419.77 216.21 421.93 216.21 426.6 199.68 437.67 193.31 436.33 181.57 432.82 171.41 421.57 171.41 413.79 197.24" fill="#ff8f6a"/><path d="M415,201.08s13.36-9.83,22.2-11.82l-.87-7.69-3.51-10.16H421.57l-7.78,25.83Z" fill="#f75c2d"/><ellipse cx="405.26" cy="158.55" rx="42.66" ry="25.15" transform="translate(215.39 550.11) rotate(-85.5)" fill="#ff8f6a"/><path d="M394.41,141.34S381.34,156.43,374,148c0,0-4.24-6.87,4.7-12.07a15.51,15.51,0,0,1-4.42-8.44,9.43,9.43,0,0,1,9.5-10.53,23.26,23.26,0,0,1,6,.87s9.72-22.13,28.84-5.37c0,0,16.09-8.38,17.1,8.72,0,0,10.72,1,6.37,13.41,0,0,7.78,4.36,1,22.47l-6.74,24.47s-8.44-2.9-7.87-7.44l2-15.58s-5.39-1.64-6.57,3.08l-1.17-10.9s-10.2,0-9.53-8.39C413.19,142.34,406.48,150.73,394.41,141.34Z" fill="#5e1212"/><polygon points="426.6 199.68 428.46 218.46 440.68 204.04 437.67 193.31 426.6 199.68" fill="#366e91"/><polygon points="421.93 216.21 427.73 211.07 426.6 199.68 421.93 216.21" fill="#366e91"/><polygon points="421.93 216.21 427.73 211.07 426.6 199.68 421.93 216.21" opacity="0.2"/><polygon points="409.39 207.94 419.77 216.21 415.9 203.92 409.39 207.94" fill="#366e91"/><polygon points="409.39 207.94 419.77 216.21 415.9 203.92 409.39 207.94" opacity="0.2"/><polygon points="409.39 207.94 409.39 223.48 417.87 214.7 409.39 207.94" fill="#366e91"/><path d="M420.72,215.71c.27,8.67.55,17.34.9,26s.73,17.32,1.29,26,1.18,17.29,2,25.9l.72,6.46.93,6.42c.32,2.14.77,4.26,1.14,6.39.17,1.08.5,2.11.75,3.16l.8,3.15c-2.8-8.23-4.14-16.88-5.23-25.47s-1.77-17.28-2.33-25.94-.85-17.33-1-26S420.51,224.39,420.72,215.71Z" opacity="0.09"/><path d="M395,320.54s32.36,4,67.39-25.19a33,33,0,0,0,11.86-27.47l0-.45,24.43,36.62v30.28l-100.83-2.8A85.82,85.82,0,0,1,395,320.54Z" opacity="0.09"/><path d="M486.14,380.23a61.82,61.82,0,0,1-11.33,6.09,34.65,34.65,0,0,1-6.36,2c-11.8,2.44-18.9,12.83-21,16.33a29.34,29.34,0,0,1-1.74,2.64c-26.74,35.72-65.07,16.81-82.38,5.29a33,33,0,0,1-13.67-18.76l0-.12a.15.15,0,0,1,0-.06,62.3,62.3,0,0,1-1.71-9c-1.55-13.36.87-29,13.68-43.21,0,0,15.72-18.06,41.85-15.94a41.43,41.43,0,0,0,29.32-9.9s30.38-24.36,57.57,9.54a43.79,43.79,0,0,1,9,17.74,40.41,40.41,0,0,1,1.1,12.53A32.89,32.89,0,0,1,486.14,380.23Z" fill="#feba55"/><path d="M472,402.87c-9,4-13.16,12.73-13.16,12.73-.11.24-.23.47-.35.7a56.13,56.13,0,0,1-58.58,30.6c-42.75-6.48-49.94-51.31-50.22-53.16l0,.12a33,33,0,0,0,13.67,18.76c17.55,11.68,56.68,30.95,83.46-6.77,0,0,7.88-15.49,23.05-17.73,0,0,17.9-5.08,26.89-18.13a41.29,41.29,0,0,0,2.56-27.05C517.67,388.29,472,402.87,472,402.87Z" fill="#feba55"/><path d="M472,402.87c-9,4-13.16,12.73-13.16,12.73-.11.24-.23.47-.35.7a56.13,56.13,0,0,1-58.58,30.6c-42.75-6.48-49.94-51.31-50.22-53.16l0,.12a33,33,0,0,0,13.67,18.76c17.55,11.68,56.68,30.95,83.46-6.77,0,0,7.88-15.49,23.05-17.73,0,0,17.9-5.08,26.89-18.13a41.29,41.29,0,0,0,2.56-27.05C517.67,388.29,472,402.87,472,402.87Z" opacity="0.2"/><path d="M338.09,616.78l-1.74,10.76s9.82,11.37,28.15,7.45v-7.55S349,629.66,338.09,616.78Z" fill="#ff8f6a"/><rect x="304.28" y="595.92" width="15.18" height="9.35" fill="#feba55"/><polygon points="304.28 605.27 297.77 600.6 297.77 595.92 304.28 595.92 304.28 605.27" fill="#feba55"/><polygon points="304.28 605.27 297.77 600.6 297.77 595.92 304.28 595.92 304.28 605.27" opacity="0.3"/><circle cx="448.38" cy="358.1" r="14.17" opacity="0.2"/><rect x="390.07" y="372.58" width="6.23" height="34.03" rx="2.49" transform="translate(-147.18 269.66) rotate(-32.22)" opacity="0.2"/><rect x="611.47" y="278.89" width="0.88" height="4.03" transform="translate(-55.93 366.54) rotate(-31.96)" fill="#feba55"/><rect x="622.98" y="272.83" width="0.88" height="6.81" transform="translate(-55.19 342.92) rotate(-29.51)" fill="#feba55"/><rect x="633.98" y="266.96" width="0.88" height="8.42" transform="translate(-53.63 322.2) rotate(-27.39)" fill="#feba55"/><circle cx="614.66" cy="284.98" r="3.23" fill="#feba55"/><circle cx="626.06" cy="281.75" r="3.23" fill="#feba55"/><circle cx="638" cy="277.68" r="3.23" fill="#feba55"/><circle cx="612.98" cy="234.11" r="3.23" fill="#feba55"/><ellipse cx="428.46" cy="166.34" rx="5.75" ry="7.79" fill="#ff8f6a"/><path d="M414.45,354.46c-.05.46-.09.9-.16,1.34-1.11,7.24-5.06,10.69-7.88,12.26a5.18,5.18,0,0,1-5.1,0c-31.15-17.76-38.41-25.54-38.41-25.54-24.88-18.61-13.64-38.69-13.64-38.69l18.07-44c6-24.36,21.44-34.74,21.44-34.74a8.4,8.4,0,0,0-2.58,6.09c0,5.16.13,17,1.08,31.85h0c.46,7.23,1.13,15.17,2.07,23.37-4.21,5.81-9.06,19.27-11.06,25.11a7.27,7.27,0,0,0,.31,5.57c7.45,15.06,26.65,28.25,33.5,32.61A5.09,5.09,0,0,1,414.45,354.46Z" fill="#366e91"/><path d="M414.45,354.46c-.05.46-.09.9-.16,1.34-29.31-16.57-41.61-36.65-41.61-36.65-5.52-8.44,14.59-56.15,14.59-56.15h0c.46,7.23,1.13,15.17,2.07,23.37-4.21,5.81-9.06,19.27-11.06,25.11a7.27,7.27,0,0,0,.31,5.57c7.45,15.06,26.65,28.25,33.5,32.61A5.09,5.09,0,0,1,414.45,354.46Z" opacity="0.2"/><path d="M467.31,232.76s-3.62-34.93,14.45-20.88c0,0,12.63,14.08,26.26,49.41a54.06,54.06,0,0,0,15.72,22.17,46.93,46.93,0,0,0,21.46,10.33l-28.51,17.26S474.93,310.65,467.31,232.76Z" fill="#366e91"/><path d="M472,259.8s17.88,45.93,50.18,48l-5.44,3.29S483.27,308.43,472,259.8Z" opacity="0.2"/><path d="M490.33,325.2l100.45-59.77a.86.86,0,0,0,.37-1c-.25-1-.1-3.14,4.27-5.7l25.36-18.63a4.85,4.85,0,0,1,6.9,1.18l11.24,16.53a4.86,4.86,0,0,1-1.7,7l-31.78,17.28a4,4,0,0,1-3.53.22,3.62,3.62,0,0,1-1.46-1.18L498.12,339A40.94,40.94,0,0,0,490.33,325.2Z" fill="#feba55"/><rect x="372.25" y="317.56" width="267.31" height="0.88" transform="translate(-91.18 294.54) rotate(-29.9)" fill="#fff"/><rect x="374.36" y="323.1" width="268.75" height="0.88" transform="translate(-93.6 297.36) rotate(-29.97)" fill="#fff"/><rect x="378.65" y="327.61" width="267.9" height="0.88" transform="translate(-95.27 298.53) rotate(-29.84)" fill="#fff"/><path d="M499.3,342.94l104-60.27a4.26,4.26,0,0,1-2.84-1.49L498.12,339A33.71,33.71,0,0,1,499.3,342.94Z" fill="#feba55"/><path d="M499.3,342.94l104-60.27a4.26,4.26,0,0,1-2.84-1.49L498.12,339A33.71,33.71,0,0,1,499.3,342.94Z" opacity="0.2"/><circle cx="593.69" cy="250.72" r="3.23" fill="#feba55"/><circle cx="603.29" cy="242.25" r="3.23" fill="#feba55"/><path d="M544.52,303.1a1.65,1.65,0,0,0-2.92,1.19c.51,5.43,3.22,21.1,17.25,15.42,0,0,20.48-5.22,10.84-30.11,0,0-4.42-3.62-3.21,8.43,0,0,1.22,7.59-.35,10.34a1.17,1.17,0,0,1-2.15-.55c-.26-3.23-1.16-11-4.05-14.74a2.12,2.12,0,0,0-3.81,1.23c-.07,1.93.48,5,2.67,9.72a8.29,8.29,0,0,1,.82,3.23c0,1.52-.35,3.36-2.28,4.05,0,0-1.14.7-2.9-3.3a20.43,20.43,0,0,1-1.36-4.45c-.45-2.34-1.61-6.59-3.92-5.2,0,0-2.39,0-1,5.41l2.42,7.39a1.11,1.11,0,0,1-1.92,1,12,12,0,0,1-1.76-3.65A19.36,19.36,0,0,0,544.52,303.1Z" fill="#ff8f6a"/><path d="M406.41,368.06s22.13,21.43,34.27,21.54c0,0,4,1.18-4.06-4.46,0,0-5.16-3.27-4.52-5.54,1.12-2.89,10,7.19,16.28,8.63,0,0,3.44-1.47-1.58-4.17L438,376.67a1.32,1.32,0,0,1,.19-2.14h0a1.3,1.3,0,0,1,1.55.18c2.29,2.15,9.68,8.81,15,9.84,0,0,3.37-.64-2.49-5.72l-14.39-11.21,2.77-1.61s11.91,10.44,17.31,9.46c0,0,3.68-.73-7.12-7.85l-13.07-7a1,1,0,0,1,.11-1.88,12.69,12.69,0,0,1,4.5-.6s3.26.63,2.81-1.83c0,0,1.58-1.81-15.92-2.4l-14.85.59S414,364.83,406.41,368.06Z" fill="#ff8f6a"/><path d="M497.89,370a45.72,45.72,0,0,1-24.09,23.63l-.61.24a33.1,33.1,0,0,0-20,20,32.31,32.31,0,0,1-2.14,3.73c-22.1,29.1-44.46,26.43-62.3,19.12a65,65,0,0,1-33.36-30.89s57.1,49.93,92.55,0c0,0,7.88-15.49,23.05-17.73C471,388.12,488.9,383,497.89,370Z" opacity="0.2"/><path d="M336.35,627.54s-7.85,7.13-22.9,8.27c0,0-23.89-7.37-23.24,19.47,0,0,8.18,10.14,31.09,7.52,0,0,6.87-2.08,19.64.43,0,0,22.9,5.14,23.56-3.05,0,0,4.91-17,0-25.19C364.5,635,348.46,639.39,336.35,627.54Z" fill="#366e91"/><path d="M174.81,225.44c1.77,6,13,42,28.57,47.4a5.74,5.74,0,0,0,7.57-4.56c.45-3.06-.32-7.88-4.14-15.44l-21.34-32a10,10,0,0,1-1.54-3.82c-.7-3.83-1.59-11.68-3.1-16.08,0,0-1.08-4.5-2.54-6.12a1,1,0,0,0-1.76.83l.66,5.8a.42.42,0,0,1-.75.31l-12.78-15.44a1.75,1.75,0,0,0-2.33-.34h0a1.75,1.75,0,0,0-.41,2.51l8.43,10.27a1,1,0,0,1,0,1.28h0a1,1,0,0,1-1.48,0l-9.81-11a2,2,0,0,0-3,0h0a2,2,0,0,0,.06,2.76l9.16,9.16a1,1,0,0,1-.1,1.45h0a1,1,0,0,1-1.17,0l-9.6-7.43a1.75,1.75,0,0,0-2.55.45h0a1.74,1.74,0,0,0,.36,2.28l9.41,7.76a1,1,0,0,1,0,1.5h0a1,1,0,0,1-1.3,0l-5.45-4.69a1.83,1.83,0,0,0-2.83.57h0a1.81,1.81,0,0,0,.25,2c3,3.53,14.3,16.14,22.47,19.42A1.79,1.79,0,0,1,174.81,225.44Z" fill="#ff8f6a"/><path d="M134.13,129.93s10.68,11.88,16-9.34c0,0,5.94-19.52,18-21.22,0,0-4.51,2.46-3.73,9.19,0,0-8.15,11.36-9.84,37.71,0,0-.21,10.09,3.29,15.76,0,0-6.48-2-6.9-17.89,0,0-.12,2.32-3.56,3.81A27,27,0,0,1,134.13,129.93Z" opacity="0.2"/><ellipse cx="151.94" cy="130.67" rx="5.4" ry="7.53" fill="#ff8f6a"/><path d="M112.1,236.5l-3.94,87.83a14.57,14.57,0,0,1-5,9.32s-20.5,11.15-18,19.56c0,0-2.5,7,8.76,3.06,0,0,13.28-5.8,16.76-5.8,0,0-7.57,4.27-3.42,8,0,0,1.59,1.12,6.89-4,0,0,8.41-2.92,7.5-22.3,0,0,8.09-86.9,8.79-95.69C130.38,236.5,120.49,241.14,112.1,236.5Z" fill="#ff8f6a"/><path d="M557.26,166.48a10,10,0,0,0-6.64-2.34,9.67,9.67,0,0,1-7.35-3.22l-.28-1a.66.66,0,0,0-.79-.44.65.65,0,0,0-.44.79l11.08,37.38a7.46,7.46,0,0,0-2.8-.92,13.09,13.09,0,0,0-7,1.29c-5,2.32-7.78,6.83-6.27,10.08,1.3,2.8,5.4,3.75,9.64,2.48a16.8,16.8,0,0,0,2.08-.79,13,13,0,0,0,5.5-4.57,5.67,5.67,0,0,0,.8-5.43h0L547,173.64a10.2,10.2,0,0,0,6.77,2.46,9.78,9.78,0,0,1,7.66,3.58.48.48,0,0,0,.48.13H562a.48.48,0,0,0,.23-.54L559.5,170A6.74,6.74,0,0,0,557.26,166.48Z" fill="#feba55"/><path d="M643.31,153.7h0L646,131.35l1-8.32v-.47l-22.75-2.81v.48l-1,8.33L620.77,149a8.21,8.21,0,0,0-6.82-2.67c-4.06.09-7.31,2.36-7.25,5,0,2.29,2.57,4.15,5.87,4.55a10.82,10.82,0,0,0,1.61,0c4-.11,7.26-2.33,7.25-5h0l2.35-19.19,20.9,2.55-2.11,17.27a5.32,5.32,0,0,0-1.61-1.45,9.66,9.66,0,0,0-5.16-1.2c-4.08.11-7.33,2.36-7.26,5,0,2.29,2.57,4.15,5.86,4.55a10.82,10.82,0,0,0,1.61,0C640.1,158.54,643.31,156.32,643.31,153.7Zm-19.37-22.8.25-2.22,20.91,2.56-.26,2.22Z" fill="#feba55"/><path d="M559.66,102.3h0L546.07,74.39,541,64l-.31-.5L512.26,77.32l.27.58,5.08,10.41L530,113.85c-2.62-1-6.43-.34-9.88,2-4.64,3.22-6.72,8.22-4.64,11.26,1.78,2.6,6.08,2.88,10.19.88a14,14,0,0,0,2-1.15c4.58-3.14,6.66-8,4.68-11.16h0L518.77,87.77,544.9,75.05l12.43,25.4c-2.62-1-6.43-.34-9.89,2a13.49,13.49,0,0,0-4.82,5.55,5.25,5.25,0,0,0,5.43,7.91,12.3,12.3,0,0,0,4.82-1.32,15.42,15.42,0,0,0,2-1.16C559.56,110.32,561.6,105.28,559.66,102.3Z" fill="#feba55"/></svg>