<svg xmlns="http://www.w3.org/2000/svg" width="865.76" height="682.89" viewBox="0 0 865.76 682.89"><path d="M492.2,125.53a97.39,97.39,0,0,0,55,87.83,95.85,95.85,0,0,0,29.41,8.73l1.57.19a97.17,97.17,0,0,0,25.84-.55q3.93-.61,7.74-1.54c2.64-.63,5.25-1.38,7.8-2.23a97.34,97.34,0,0,0,66.34-92.43c0-53.77-43.36-97.36-96.86-97.36S492.2,71.76,492.2,125.53Z" fill="#f2004b"/><path d="M492.2,125.53a97.39,97.39,0,0,0,55,87.83,95.85,95.85,0,0,0,29.41,8.73l1.57.19a97.17,97.17,0,0,0,25.84-.55q3.93-.61,7.74-1.54c2.64-.63,5.25-1.38,7.8-2.23a97.34,97.34,0,0,0,66.34-92.43c0-53.77-43.36-97.36-96.86-97.36S492.2,71.76,492.2,125.53Z" fill="#fff" opacity="0.7"/><path d="M774.43,297.86a127.72,127.72,0,0,0-96.72-116,105.74,105.74,0,0,1-20.22,23.54,104.42,104.42,0,0,1-35.4,20.2c-2.76.92-5.58,1.73-8.44,2.42s-5.54,1.23-8.38,1.67a105.54,105.54,0,0,1-28,.59l-1.7-.2a104.12,104.12,0,0,1-47.06-18.46A105.52,105.52,0,0,1,487,149.81c-21.36-10.41-39.57-18.34-54.35-24.27a247.94,247.94,0,0,0-243.75,33.37c-22.28,17.17-33.73,31.92-33.73,31.92C43,347.65,175.61,512.26,175.61,512.26s109.25-43.53,254-41.91a202.64,202.64,0,0,1,27.73,2.25L683.88,516C768,458.87,778.5,362.46,774.43,297.86Z" fill="#f2004b"/><path d="M774.43,297.86a127.72,127.72,0,0,0-96.72-116,105.74,105.74,0,0,1-20.22,23.54,104.42,104.42,0,0,1-35.4,20.2c-2.76.92-5.58,1.73-8.44,2.42s-5.54,1.23-8.38,1.67a105.54,105.54,0,0,1-28,.59l-1.7-.2a104.12,104.12,0,0,1-47.06-18.46A105.52,105.52,0,0,1,487,149.81c-21.36-10.41-39.57-18.34-54.35-24.27a247.94,247.94,0,0,0-243.75,33.37c-22.28,17.17-33.73,31.92-33.73,31.92C43,347.65,175.61,512.26,175.61,512.26s109.25-43.53,254-41.91a202.64,202.64,0,0,1,27.73,2.25L683.88,516C768,458.87,778.5,362.46,774.43,297.86Z" fill="#fff" opacity="0.7"/><path d="M122.12,600.48a56.34,56.34,0,0,1-16.64-6.68c-17.12-10.39-37.23-35.5,51.26-78.13,0,0,54.95-24.11,130.64-37.3,0,0,53.84-8.74,90.53-8l149,4.35s208.68,31.73,225.18,90.81c0,0,35.53,64.87-132.76,88.5,0,0-116.25,8.31-100.3-31.49C519,622.51,319.33,645.77,122.12,600.48Z" fill="#f2004b"/><path d="M122.12,600.48a56.34,56.34,0,0,1-16.64-6.68c-17.12-10.39-37.23-35.5,51.26-78.13,0,0,54.95-24.11,130.64-37.3,0,0,53.84-8.74,90.53-8l149,4.35s208.68,31.73,225.18,90.81c0,0,35.53,64.87-132.76,88.5,0,0-116.25,8.31-100.3-31.49C519,622.51,319.33,645.77,122.12,600.48Z" fill="#fff" opacity="0.6"/><polygon points="254.74 170.79 215.39 155.66 215.39 531.98 253.22 550.64 254.74 170.79" fill="#0b68a2"/><polygon points="254.74 170.79 414.64 144.56 370.25 127.41 215.39 155.66 254.74 170.79" fill="#0b68a2"/><polygon points="254.74 170.79 414.64 144.56 370.25 127.41 215.39 155.66 254.74 170.79" opacity="0.3"/><polygon points="253.22 550.64 411.11 491.12 414.64 144.56 254.74 170.79 253.22 550.64" fill="#0b68a2"/><polygon points="253.22 550.64 411.11 491.12 414.64 144.56 254.74 170.79 253.22 550.64" fill="#fff" opacity="0.3"/><polygon points="263.31 178.36 263.31 536.01 403.04 481.53 403.55 153.13 263.31 178.36" fill="#fff"/><polygon points="400.61 153.59 400.52 479.51 263.13 531.44 263.31 536.01 403.04 481.53 403.55 153.13 400.61 153.59" fill="#0b68a2"/><polygon points="306.19 240.91 305.68 294.89 370.76 277.73 370.76 224.77 306.19 240.91" fill="#f2004b"/><path d="M300.14,238.89l6.05,2-.51,54a6.32,6.32,0,0,0-2.52-2,6.48,6.48,0,0,0-3.53-.51Z" fill="#f2004b"/><path d="M300.14,238.89l6.05,2-.51,54a6.32,6.32,0,0,0-2.52-2,6.48,6.48,0,0,0-3.53-.51Z" opacity="0.3"/><polygon points="300.13 238.89 362.18 222.75 370.76 224.77 306.19 240.91 300.13 238.89" fill="#f2004b"/><polygon points="300.13 238.89 362.18 222.75 370.76 224.77 306.19 240.91 300.13 238.89" opacity="0.2"/><polygon points="350.08 208.63 354.63 214.6 304.59 240.55 350.08 208.63" fill="#0b68a2"/><polygon points="350.08 208.63 354.63 214.6 304.59 240.55 350.08 208.63" opacity="0.3"/><polyline points="316.05 240.98 310.22 242.42 310.16 248.42" fill="none" stroke="#fff" stroke-miterlimit="10" stroke-width="2"/><line x1="310.03" y1="260.4" x2="309.85" y2="278.36" fill="none" stroke="#fff" stroke-miterlimit="10" stroke-width="2" stroke-dasharray="11.98 11.98"/><polyline points="309.78 284.35 309.72 290.35 315.53 288.87" fill="none" stroke="#fff" stroke-miterlimit="10" stroke-width="2"/><line x1="324.71" y1="286.53" x2="356.82" y2="278.36" fill="none" stroke="#fff" stroke-miterlimit="10" stroke-width="2" stroke-dasharray="9.47 9.47"/><polyline points="361.41 277.2 367.23 275.72 367.23 269.72" fill="none" stroke="#fff" stroke-miterlimit="10" stroke-width="2"/><line x1="367.23" y1="257.91" x2="367.23" y2="240.2" fill="none" stroke="#fff" stroke-miterlimit="10" stroke-width="2" stroke-dasharray="11.81 11.81"/><polyline points="367.23 234.3 367.23 228.3 361.4 229.74" fill="none" stroke="#fff" stroke-miterlimit="10" stroke-width="2"/><line x1="352.33" y1="231.99" x2="320.58" y2="239.86" fill="none" stroke="#fff" stroke-miterlimit="10" stroke-width="2" stroke-dasharray="9.35 9.35"/><path d="M281.15,322.46h0a7.44,7.44,0,0,0,9,6L386,306.67a7.91,7.91,0,0,0,6-9.22h0a7.91,7.91,0,0,0-9.6-6.21L286.76,314A7.45,7.45,0,0,0,281.15,322.46Z" fill="#ffc345"/><path d="M291.64,324.87a.65.65,0,0,1-.27-.05.73.73,0,0,1-.41-.95l4-10.09a.73.73,0,0,1,1.35.55l-4,10.08A.71.71,0,0,1,291.64,324.87Z" fill="#fff"/><path d="M283.57,326.39a.63.63,0,0,1-.27-.06.72.72,0,0,1-.41-.94l4-10.09a.72.72,0,0,1,.94-.41.73.73,0,0,1,.41.95l-4,10.09A.72.72,0,0,1,283.57,326.39Z" fill="#fff"/><path d="M307.7,321.85a.66.66,0,0,1-.27-.06.72.72,0,0,1-.4-.94l4-10.09a.73.73,0,1,1,1.35.54l-4,10.09A.75.75,0,0,1,307.7,321.85Z" fill="#fff"/><path d="M300.21,323.36a.86.86,0,0,1-.27-.05.73.73,0,0,1-.4-.95l4-10.09a.73.73,0,0,1,1.36.54l-4,10.09A.72.72,0,0,1,300.21,323.36Z" fill="#fff"/><path d="M325.86,317.81a.86.86,0,0,1-.27-.05.73.73,0,0,1-.4-.95l4-10.09a.73.73,0,0,1,.95-.4.72.72,0,0,1,.4.94l-4,10.09A.73.73,0,0,1,325.86,317.81Z" fill="#fff"/><path d="M317.79,319.32a.65.65,0,0,1-.27-.05.73.73,0,0,1-.41-.95l4-10.08a.73.73,0,1,1,1.35.54l-4,10.09A.74.74,0,0,1,317.79,319.32Z" fill="#fff"/><path d="M344.53,313.27a.81.81,0,0,1-.27,0,.73.73,0,0,1-.41-1l4-10.09a.73.73,0,0,1,1.35.54l-4,10.09A.71.71,0,0,1,344.53,313.27Z" fill="#fff"/><path d="M336.46,314.78a.69.69,0,0,1-.28,0,.73.73,0,0,1-.4-1l4-10.08a.73.73,0,0,1,1.36.54l-4,10.09A.72.72,0,0,1,336.46,314.78Z" fill="#fff"/><path d="M363.7,309.74a.92.92,0,0,1-.28-.05.73.73,0,0,1-.4-.95l4-10.09a.75.75,0,0,1,.95-.41.73.73,0,0,1,.41.95l-4,10.09A.72.72,0,0,1,363.7,309.74Z" fill="#fff"/><path d="M355.62,311.25a.65.65,0,0,1-.27-.05.73.73,0,0,1-.4-.95l4-10.09a.73.73,0,0,1,1.36.55l-4,10.08A.72.72,0,0,1,355.62,311.25Z" fill="#fff"/><path d="M382.86,305.7a.65.65,0,0,1-.27-.05.73.73,0,0,1-.4-.95l4-10.08a.73.73,0,1,1,1.36.54l-4,10.09A.73.73,0,0,1,382.86,305.7Z" fill="#fff"/><path d="M374.79,307.22a.66.66,0,0,1-.27-.06.72.72,0,0,1-.4-.94l4-10.09a.73.73,0,0,1,1-.41.74.74,0,0,1,.41.95l-4,10.09A.74.74,0,0,1,374.79,307.22Z" fill="#fff"/><path d="M331.66,336.87l-2.06.24.22-10.19-1.88.25,0-1.75,3.93-.53Z" fill="#f2004b"/><path d="M335.58,328.58a7.38,7.38,0,0,1,.2-1.75,3.71,3.71,0,0,1,.54-1.18,4.53,4.53,0,0,1,1.39-1.4,4.58,4.58,0,0,1,1.86-.66,3.75,3.75,0,0,1,1.81.17,3.37,3.37,0,0,1,1.43,1,2.58,2.58,0,0,1,.49,1.07,7.42,7.42,0,0,1,.14,1.72l-.05,3.63a7.93,7.93,0,0,1-.19,1.79,3.82,3.82,0,0,1-.56,1.21,4.34,4.34,0,0,1-3.3,2,3.73,3.73,0,0,1-1.81-.22,3.25,3.25,0,0,1-1.41-1.07,2.71,2.71,0,0,1-.48-1.07,6.87,6.87,0,0,1-.12-1.7Zm2.18-.3-.06,3.64a2.64,2.64,0,0,0,.39,1.71,1.31,1.31,0,0,0,1.29.42,1.82,1.82,0,0,0,1.33-.75,3.41,3.41,0,0,0,.45-1.87l.06-3.78a4.14,4.14,0,0,0,0-.77,1.36,1.36,0,0,0-.14-.43,1.39,1.39,0,0,0-.62-.58,1.59,1.59,0,0,0-.9-.12,1.85,1.85,0,0,0-1.31.75A3.2,3.2,0,0,0,337.76,328.28Z" fill="#f2004b"/><path d="M344.79,327.38a7.3,7.3,0,0,1,.19-1.78,4.06,4.06,0,0,1,.55-1.2A4.83,4.83,0,0,1,347,323a4.72,4.72,0,0,1,1.92-.67,4,4,0,0,1,1.87.17,3.51,3.51,0,0,1,1.49,1,2.7,2.7,0,0,1,.52,1.09,7.53,7.53,0,0,1,.15,1.74l0,3.69a7.6,7.6,0,0,1-.19,1.82,4.05,4.05,0,0,1-.57,1.23,4.66,4.66,0,0,1-1.45,1.42,5,5,0,0,1-1.95.63,3.9,3.9,0,0,1-1.88-.22,3.56,3.56,0,0,1-1.46-1.08,2.68,2.68,0,0,1-.5-1.09,7.42,7.42,0,0,1-.14-1.72Zm2.25-.31-.05,3.71a2.67,2.67,0,0,0,.42,1.73,1.39,1.39,0,0,0,1.33.42,1.81,1.81,0,0,0,1.37-.76,3.4,3.4,0,0,0,.47-1.9l0-3.84a4.21,4.21,0,0,0,0-.78,1.34,1.34,0,0,0-.15-.44,1.42,1.42,0,0,0-.65-.59,1.76,1.76,0,0,0-.93-.12,1.86,1.86,0,0,0-1.34.77A3.11,3.11,0,0,0,347,327.07Z" fill="#f2004b"/><path d="M354.35,324.62a3.42,3.42,0,0,1,.23-1.21,3.75,3.75,0,0,1,.65-1.08,3.54,3.54,0,0,1,.95-.79,3.25,3.25,0,0,1,1.12-.39,2.68,2.68,0,0,1,1.13.08,2.17,2.17,0,0,1,.94.54,2.48,2.48,0,0,1,.66.91,3,3,0,0,1,.22,1.16,3.37,3.37,0,0,1-.23,1.21,4.06,4.06,0,0,1-.67,1.1,3.39,3.39,0,0,1-1,.78,3.2,3.2,0,0,1-1.14.38,2.62,2.62,0,0,1-1.12-.09,2.54,2.54,0,0,1-.94-.54,2.68,2.68,0,0,1-.64-.92A2.92,2.92,0,0,1,354.35,324.62Zm1.55-.2a1.19,1.19,0,0,0,1.38,1.26,1.51,1.51,0,0,0,1-.55,1.6,1.6,0,0,0,.41-1.08,1.28,1.28,0,0,0-.4-1,1.18,1.18,0,0,0-1-.29,1.56,1.56,0,0,0-1,.56A1.63,1.63,0,0,0,355.9,324.42Zm7.66-4.13,1.38-.19-6.52,13.95-1.35.15Zm-1.87,10.23a3.53,3.53,0,0,1,.89-2.32,3.34,3.34,0,0,1,1-.79,3.11,3.11,0,0,1,1.17-.39,2.85,2.85,0,0,1,1.17.09,2.56,2.56,0,0,1,1,.55,2.84,2.84,0,0,1,.67.94,3.11,3.11,0,0,1,.23,1.19,3.49,3.49,0,0,1-.23,1.24,3.74,3.74,0,0,1-1.66,1.9,3.28,3.28,0,0,1-1.17.38,2.85,2.85,0,0,1-1.17-.11,2.37,2.37,0,0,1-1-.57,2.56,2.56,0,0,1-.65-.93A3.06,3.06,0,0,1,361.69,330.52Zm1.59-.19a1.3,1.3,0,0,0,.41,1,1.2,1.2,0,0,0,1,.31,1.57,1.57,0,0,0,1-.55,1.63,1.63,0,0,0,.42-1.1,1.27,1.27,0,0,0-.42-1,1.17,1.17,0,0,0-1-.31,1.5,1.5,0,0,0-1,.56A1.6,1.6,0,0,0,363.28,330.33Z" fill="#f2004b"/><polygon points="304.59 240.55 361.17 211.15 366.72 225.9 306.19 240.91 304.59 240.55" fill="#0b68a2"/><path d="M561.31,108.63c0,12.38,5,23.18,12.38,28.83a19.36,19.36,0,0,0,11.83,4.21c8.27,0,15.56-5.65,19.93-14.27a41.73,41.73,0,0,0,4.29-18.77c0-18.25-10.84-33-24.22-33S561.31,90.38,561.31,108.63Z" fill="#f9b498"/><path d="M566.86,145.2c22.7,15.14,42.88-2,42.88-2L608,141.82a7,7,0,0,1-2.72-5.7l.18-8.72c-4.37,8.62-11.66,14.27-19.93,14.27a19.36,19.36,0,0,1-11.83-4.21A26.93,26.93,0,0,1,566.86,145.2Z" fill="#f9b498"/><path d="M572,139.74c15.75,13.21,34.89,1,34.89,1-1.82-2.92-1.63-4.65-1.63-4.65l.18-8.72c-4.37,8.62-11.66,14.27-19.93,14.27a19.36,19.36,0,0,1-11.83-4.21Z" fill="#f97673"/><path d="M533.16,205.05a97,97,0,0,0,14.05,8.31,95.85,95.85,0,0,0,29.41,8.73l1.57.19a97.17,97.17,0,0,0,25.84-.55q3.93-.61,7.74-1.54c2.64-.63,5.25-1.38,7.8-2.23a96.59,96.59,0,0,0,32.69-18.66l-14.78-34.93c-9.58-24.21-27.74-21.19-27.74-21.19s-20.18,17.16-42.88,2c-8.28-2.63-15.16,5.48-20.53,16.68A122.62,122.62,0,0,0,541,175.21,248.08,248.08,0,0,0,533.16,205.05Z" fill="#0b68a2"/><path d="M611.77,220.19c2.64-.63,5.25-1.38,7.8-2.23l-2.77-30.89C613.13,189.52,612.05,211.77,611.77,220.19Z" fill="#fff" opacity="0.3"/><path d="M611.25,149.24c-11.65,7.19-28,12.13-40.84,5.45l-1.34-.74c-.63-.39-1.29-.86-1.92-1.27-.45-.34-1.36-1.08-1.81-1.42l1.84,1.38c.64.39,1.3.85,2,1.21l1.35.72c12.92,6.43,29,1.52,40.77-5.33Z" fill="#fff" opacity="0.3"/><polygon points="548.19 143.19 563.83 170.93 561.31 172.95 545.67 145.2 548.19 143.19" fill="#f2004b"/><polygon points="548.19 143.19 563.83 170.93 561.31 172.95 545.67 145.2 548.19 143.19" opacity="0.3"/><polygon points="534.07 145.2 545.67 145.2 548.19 143.19 536.09 142.68 534.07 145.2" fill="#f2004b"/><polygon points="534.07 145.2 545.67 145.2 548.19 143.19 536.09 142.68 534.07 145.2" opacity="0.2"/><path d="M547.21,213.36a95.85,95.85,0,0,0,29.41,8.73l1.57.19c-4.09-9.84-17.21-39.66-26.47-41.77,0,0-1-.57-2.11,3.23S547.39,195.75,547.21,213.36Z" fill="#fff" opacity="0.3"/><polygon points="561.31 172.95 549.71 175.47 534.07 145.2 545.67 145.2 561.31 172.95" fill="#f2004b"/><path d="M607.75,122.88s-2.55,11.22,4,7.19c0,0,4.54-1,4.54-12.61,0,0,1.52-7.06,4-10.6,0,0,8.58-18.66-8.07-31.27,0,0-16.14-13.12-27.75-5,0,0-3-5.21-11.18-2.2a19.88,19.88,0,0,0-7.83,5.37c-4.63,5.15-11.6,16.37-4.2,32.45,0,0,1.46-12.83,6.93-20.68,0,0,23.5,30.3,32.51,22.31Z" fill="#1f2d49"/><path d="M619.22,109.28s-13.36-13.68-18.48-1.49l7,15.09s-2.55,11.22,4,7.19c0,0,4.54-1,4.54-12.61C616.29,117.46,616.6,114.72,619.22,109.28Z" opacity="0.2"/><path d="M381.82,556.75,341,561.5,304.13,432.89s-1.93-13.51,41.8-18.46l113.44-14s10.52-4.33,18.36,18.36Z" fill="#ffc345"/><path d="M381.82,556.75,341,561.5,304.13,432.89s-1.93-13.51,41.8-18.46l113.44-14s10.52-4.33,18.36,18.36Z" fill="#fff" opacity="0.3"/><path d="M341,561.5,299.93,546l1.2-102.57a21.24,21.24,0,0,1,21.44-21h0a21.23,21.23,0,0,1,21,21.71Z" fill="#272b35"/><polygon points="381.82 556.75 477.77 581.08 476.25 486.19 381.61 474.45 381.82 556.75" fill="#ffc345"/><path d="M476.69,493.35l-.44-7.16-94.64-11.74.21,82.3,95.95,24.33-.45-6s-54.42-7.15-53.73-15.6a1.88,1.88,0,0,1,.22-.73C426,554.49,457.56,492.88,476.69,493.35Z" opacity="0.3"/><path d="M622,310.88l-155.62-4.33s-12.38-2.47-9.9,17.95V426.19l100.65,38.36,37.58,117.09,6.56.07Z" fill="#ffc345"/><polygon points="475.63 271.06 475.88 251.89 492.58 258.7 492.58 276.57 475.63 271.06" fill="#0b68a2"/><polygon points="475.88 251.89 481.65 251.69 495.88 257.25 492.58 258.7 475.88 251.89" fill="#0b68a2"/><polygon points="475.88 251.89 481.65 251.69 495.88 257.25 492.58 258.7 475.88 251.89" opacity="0.2"/><polygon points="495.88 257.25 497.12 280.77 491.55 280.77 492.58 276.57 492.58 258.7 495.88 257.25" fill="#0b68a2"/><polygon points="495.88 257.25 497.12 280.77 491.55 280.77 492.58 276.57 492.58 258.7 495.88 257.25" opacity="0.3"/><path d="M569.93,427.84s-44.55,7-65.59,15.26h0c-.2-.07-12.66-4.34-22.28-5.36,0,0-15.17-3.28-16.67-13.77a12.24,12.24,0,0,1,0-3.15l6,1a75.22,75.22,0,0,0,8.71-12.68,94,94,0,0,0,9.69-24.94A87,87,0,0,0,492,364.72l-1-52.81s9.49-9.69,20.42-5.36c0,0,11.35,4.95,11.14,8.25l29.56,8.8s23.66,10.18,25.93,27.3C578,350.9,585,409.07,569.93,427.84Z" fill="#f2004b"/><path d="M638.21,570l-36.93,11.76-3.56-248.9A21.76,21.76,0,0,1,622,310.88h0a21.76,21.76,0,0,1,19.24,21.9Z" fill="#272b35"/><path d="M551.16,323.05l.89.55c-1.17,5.9-6.87,8.94-6.87,8.94-16,10.27-26.22,8.81-29.95,7.65a6.53,6.53,0,0,1-3.38-2.33c-4.78-6.44,5.18-17.59,9.13-21.58.92-.93,1.51-1.48,1.51-1.48,3.51-.41,5.89-5.4,5.89-5.4,11.66,5.75,26.39-3.57,26.39-3.57a37.7,37.7,0,0,0-7.32,11.86C545.18,322.64,551.16,323.05,551.16,323.05Z" fill="#f9b498"/><path d="M528.38,309.4a15.12,15.12,0,0,1-3.1,4.14s14.33,7,28.77-7.19C554.05,306.35,539.84,315.14,528.38,309.4Z" fill="#f97673"/><path d="M552.05,323.6c-1.17,5.9-6.87,8.94-6.87,8.94-16,10.27-26.22,8.81-29.95,7.65a6.53,6.53,0,0,1-3.38-2.33c-4.78-6.44,5.18-17.59,9.13-21.58-2.6,3.51-7.65,10.93-8.38,16.34a5,5,0,0,0,4.65,5.66c6,.45,20.42-.3,33.91-15.23Z" fill="#f97673"/><path d="M553.22,375.65s-28.74,32.23-73.17,33.52a94,94,0,0,0,9.69-24.94L516.3,380l1.39,3.3a2.26,2.26,0,0,0,1.07,1.15c1.39.68,4.71,1.58,11.16-.32Z" opacity="0.3"/><path d="M498.77,358.53l16.3-4.12s10.51,1.85,11.75,13.2c0,0,3.1,14-8.45,15.67l-34.24,8.46s-15.47,3.92-14.44-9.7c0,0,2.06-47,12.79-78.38,0,0-11.35-14.43-10.11-18.56a5,5,0,0,1-.62-5.16s-1-3.5,1-5.36c0,0-1.24-1.65,3.3-3.71,0,0,10.52-3.71,13.41.41l4.95,8.66s1.86,1.45,1.65-4.74l.41-8.25s2.68-.62,3.3,5.36a5.17,5.17,0,0,0,1.86,3.3s4.33,3.51-.41,12.38L493,304.49Z" fill="#f9b498"/><path d="M496.55,267.16c.34,1.46,2.22,9.94.87,12.22a.79.79,0,0,1-.92.36c-.37-.14-.73-.59-.54-1.9l.53-10.67A0,0,0,0,1,496.55,267.16Z" fill="#f97673"/><path d="M482.48,303.66c-10.32,30.33-11.8,67.88-11.8,67.88-18.82,16.72-29,7.62-29,7.62-16.3-10.73,26.19-70.55,26.19-70.55.83-5.56-1.24-27.43-1.24-27.43-1-13.82,9.08-14.85,9.08-14.85l0,2.6v2.13c-3.56,1.64-2.85,3.52-2.85,3.52a6.54,6.54,0,0,0-1,5.36c-1.24,3.3.62,5.16.62,5.16C471.75,289.43,482.48,303.66,482.48,303.66Z" fill="#f9b498"/><path d="M482.48,303.66c-10.32,30.33-11.8,67.88-11.8,67.88-18.82,16.72-29,7.62-29,7.62,12,2.06,18.77-12,18.77-12,11.13-14.23,18.77-65.38,18.77-65.38l-5.95-9.29a27.92,27.92,0,0,1-4.08-10.65c-1.92-12.28,6.48-12.93,6.48-12.93h0v2.13c-3.56,1.64-2.85,3.52-2.85,3.52a6.54,6.54,0,0,0-1,5.36c-1.24,3.3.62,5.16.62,5.16C471.75,289.43,482.48,303.66,482.48,303.66Z" fill="#f97673"/><path d="M493.41,483.94a157.34,157.34,0,0,1-33.62,2.47l.2-16.29c-2.65-26.85-18.6-27.07-23.14-26.59a9.62,9.62,0,0,0-1.2.19c-9.9,2.68-16.29,17.94-16.29,17.94-8.05-1.23-12.58-36.71-12.58-36.71a189.25,189.25,0,0,0-9.27-36.07s0,0,0,0h0c12.79-6.78,6.11-17.38,5.25-18.64h0a.33.33,0,0,1-.06-.08v0l0,0h0c5-5.16,16.5,9.9,16.5,9.9l46.24,44c1.5,10.49,16.67,13.77,16.67,13.77,9.62,1,22.08,5.29,22.28,5.36h0C513.62,465.79,493.41,483.94,493.41,483.94Z" fill="#0b68a2"/><path d="M397.49,388.85l12.17,34.65s3.92,19.81,35.07,15.06l25.42-6.21,2.11,1.15-31.45,7.12s-4.42,1.11-4.17,3c0,0-9.65.69-17.28,18,0,0-5.13,1.45-10.09-22.17L407,426.6S402.86,402.88,397.49,388.85Z" fill="#fff" opacity="0.3"/><path d="M493.41,483.94a157.34,157.34,0,0,1-33.62,2.47l.2-16.29c-2.65-26.85-18.6-27.07-23.14-26.59,1.28-.67,8.21-3.69,16.95,4.31,0,0,5.78,7.64,8.05,13.41,0,0,8.25,11.35,20.63-.21l21.86-17.94C513.62,465.79,493.41,483.94,493.41,483.94Z" fill="#fff" opacity="0.3"/><path d="M459.79,486.41l-35.27,54.05c-20.43,3.92-26.2-10.11-26.2-10.11L399,528l20.33-66.37c7-17.12,17.49-18.13,17.49-18.13.67,0,1.32,0,2,0C465,444.57,459.79,486.41,459.79,486.41Z" fill="#f9b498"/><path d="M459.79,486.41l-35.27,54.05c-20.43,3.92-26.2-10.11-26.2-10.11L399,528c3.74,3.12,16,12.2,23.42,4.59,0,0,19-24.75,26-48.89,0,0,15.56-33.35-10.27-40l.64-.21C465,444.57,459.79,486.41,459.79,486.41Z" fill="#f97673"/><path d="M406.32,422.87s-13.78,17.14-24.71,9.5c0,0-.36-.54-1-1.54-5.74-9.15-33.93-56.11-15.52-68.38,0,0,19.18-13,37.54,7.63h0l0,0v0a.33.33,0,0,0,.06.08h0c.84,1.26,7.35,11.86-5.25,18.64h0v0a206.75,206.75,0,0,1,7.73,28.34C405.62,419,406,420.93,406.32,422.87Z" fill="#f9b498"/><path d="M412.14,558c-5.57,7.42-6.19,17.53-6.19,17.53s0,.11,0,.16c1.45,15.06-7.85,17.23-11.1,17.53l-1.64.19c-.66.09-1.31.2-2,.33a115.75,115.75,0,0,0-26.37,9.43c1.86-10.11-9.9-19-9.9-19l14.44-6c17.12-7.42,21.25-19.39,21.25-19.39l7.63-28.46c7.63,14.64,26.2,10.11,26.2,10.11Z" fill="#f2004b"/><path d="M394.87,593.21l-1.64.19c-.75-15.62,8.82-17.57,12.74-17.72C407.42,590.74,398.12,592.91,394.87,593.21Z" fill="#fff" opacity="0.3"/><path d="M355,584.18s-21.24,4.34-18.15,11.56c0,0,6.6,12.16,18.36,10.72l9.69-3.3S367.59,594.5,355,584.18Z" fill="#fff"/><path d="M406.32,422.87s-13.78,17.14-24.71,9.5c0,0-.36-.54-1-1.54,1.72.95,12.35,5.73,24.61-13.61C405.62,419,406,420.93,406.32,422.87Z" fill="#f97673"/><path d="M397.49,388.85s-5.36-8-12-10.31c0,0,5.78.62,13.41,6,0,0,6.39-3.51,3.71-14.44h0l0,0v0a.33.33,0,0,0,.06.08h0C403.6,371.47,410.28,382.07,397.49,388.85Z" fill="#f97673"/><path d="M594.48,585l-70.55,28.46-24.13-66-14.06-93s1.48-12.58,84.19-26.6c0,0,25-7.22,27,15.05C597,442.89,600.46,474.86,594.48,585Z" fill="#ffc345"/><path d="M594.48,585l-70.55,28.46-24.13-66-14.06-93s1.48-12.58,84.19-26.6c0,0,25-7.22,27,15.05C597,442.89,600.46,474.86,594.48,585Z" fill="#fff" opacity="0.3"/><path d="M398.32,468.06s-7-1.86-16.71,6.39L394.33,476Z" fill="#ffc345"/><path d="M560.86,300.36l-6.81,6c-12.7,7-20.8,5.51-25.1,3.38a12.18,12.18,0,0,1-5.11-4.87,27.86,27.86,0,0,1-1.25-25.23,22.12,22.12,0,0,1,2.84-4.83c2.58-3.41,5.72-10.53,5.72-10.53L548.48,270,566,287.37S566.43,298.51,560.86,300.36Z" fill="#f9b498"/><path d="M528.38,309.4s-2.8,5.4-5.89,5.4c0,0,.52-2.17-6.74-6a8.14,8.14,0,0,1-3.59-3.68c-2.22-4.66-4.19-15,8.68-30.94a3.59,3.59,0,0,0,.75-2.72c-.52-3.7-.59-13.64,11.63-20.4,0,0,16.09-9.9,23.72-1.65,0,0,28,3.5,27.84,30.52,0,0,3.1,54.05-21.24,48.89,0,0-7.84-2.89-12.38-5.78,0,0-6-.41-3.71-5.36,0,0,1.86-8.66,13.41-17.33l-.5-11.85s-2.8.51-1.77-6.5l-3.92,3.09s-10.73-6.81-10.32-12.79c0,0-1.85,1.65-1,6.19,0,0-15.26-1.44-12.17-14.23,0,0-3,7-5.68,10.48a23,23,0,0,0-3,5.09,28.34,28.34,0,0,0-1,19.74,32.83,32.83,0,0,0,1.87,4.5,13.11,13.11,0,0,0,4.94,5.29Z" fill="#1f2d49"/><path d="M522.49,314.8s.24-2.21-5.66-5.44c0,0,3.57-2.39,3.38-15.18,0,0,1.56,11.86,8.17,15.22C528.38,309.4,525.79,314.6,522.49,314.8Z" opacity="0.2"/><path d="M558.59,282s3.3-7.64,3.92-11.76c0,0-.42,11.34,5.36,18.36,0,0,5.36,9.28-3.71,24.54,0,0-4.85,8-9.75,11.55l-3.25-1.65s-6.19-.82-3.71-5.36c0,0,1.44-8.66,13.41-17.33l-.5-11.85S557.56,289.23,558.59,282Z" opacity="0.2"/><path d="M543.32,278.5s-6.94-12.67,12.1-15.43l.28,0s-7.84,2.06-11.35,9.28C544.35,272.31,542.29,273.76,543.32,278.5Z" opacity="0.2"/><path d="M540.23,252.92s-8.46,6.6-9.08,11.35c0,0-2.78,6.7-5.68,10.48C525.47,274.75,523.52,264.06,540.23,252.92Z" opacity="0.2"/><ellipse cx="562.66" cy="294.24" rx="4.85" ry="6.45" fill="#f9b498"/><path d="M472.36,285.13a2.1,2.1,0,0,1,.92-.24,4.39,4.39,0,0,1,1,.05,11.14,11.14,0,0,1,5,2.57,15.48,15.48,0,0,1,1.79,1.74c-.72-.43-1.38-.9-2.08-1.35-1.64-1.06-4.61-3.07-6.59-2.77Z" fill="#f97673"/><path d="M471.75,280a3,3,0,0,1,2-.57,9.23,9.23,0,0,1,3.43.82,17.61,17.61,0,0,1,4.66,3c-1.83-.93-3.61-2-5.53-2.74-1.28-.5-3.26-1.14-4.57-.56Z" fill="#f97673"/><path d="M472.78,274.61a7.19,7.19,0,0,1,3.93-.81A15.73,15.73,0,0,1,483.6,276c.46.29.91.58,1.35.89-.51-.19-1-.4-1.48-.61-3.32-1.31-7.13-2.65-10.69-1.66Z" fill="#f97673"/><path d="M523.93,613.47l-45.79-13.61-1.92-126.68a22.52,22.52,0,0,1,22.52-22.86h0a22.52,22.52,0,0,1,22.52,22.09Z" fill="#272b35"/><path d="M419.36,461.66c-4.95,16.5-6.44,21.79-6.44,21.79-8.29,8.8-24.5,18.23-24.5,18.23a13.53,13.53,0,0,0-2-5.87,24.33,24.33,0,0,0-8.89-7.95l13.61-15.68c6.6-8.87,2.68-15.05,2.68-15.05l-12.17-24.76c4.88,3.64,10.56,1.86,15.24-1.1a45.09,45.09,0,0,0,9.47-8.4l3.18,17.8C414.08,462.37,419.36,461.66,419.36,461.66Z" fill="#f2004b"/><path d="M419.36,461.66c-4.95,16.5-6.44,21.79-6.44,21.79-8.29,8.8-24.5,18.23-24.5,18.23a13.53,13.53,0,0,0-2-5.87,87.49,87.49,0,0,0,23.9-27.13c5.54-9.83-9.35-31.73-13.43-37.41a45.09,45.09,0,0,0,9.47-8.4l3.18,17.8C414.08,462.37,419.36,461.66,419.36,461.66Z" fill="#fff" opacity="0.3"/><path d="M377.49,487.86s-16.09,8.46-12.17,13.82c0,0,7.63,11.55,23.1,0C388.42,501.68,388.83,494.46,377.49,487.86Z" fill="#fff"/><ellipse cx="605.95" cy="113.42" rx="6.31" ry="9.58" fill="#f9b498"/><ellipse cx="606.35" cy="113.3" rx="2.19" ry="4.52" fill="#f97673"/><path d="M537.1,168.91a30.43,30.43,0,0,0,3.89,6.3,46.94,46.94,0,0,0,8.62,8.53,52.78,52.78,0,0,0,6.65,4.34l20.36,34,1.57.19a97.17,97.17,0,0,0,25.84-.55l-34.15-36.17s0-23.85-10.62-22.84A15.87,15.87,0,0,1,560.4,167a1.18,1.18,0,0,1-1,1.21c-1.12.14-3.33-.08-7.15-2.3l-5.9-4-8.23-5.58S532.05,154.79,537.1,168.91Z" fill="#f9b498"/></svg>